<?xml version="1.0" encoding="utf-8"?>
<!-- Generator: Adobe Illustrator 16.0.0, SVG Export Plug-In . SVG Version: 6.00 Build 0)  -->
<!DOCTYPE svg PUBLIC "-//W3C//DTD SVG 1.1//EN" "http://www.w3.org/Graphics/SVG/1.1/DTD/svg11.dtd">
<svg version="1.1" id="Layer_1" xmlns="http://www.w3.org/2000/svg" xmlns:xlink="http://www.w3.org/1999/xlink" x="0px" y="0px"
	 width="30px" height="30px" viewBox="0 0 30 30" enable-background="new 0 0 30 30" xml:space="preserve">
<g>
	<path fill="#FFFFFF" d="M29.816,24.432c0,1.619-1.328,2.949-2.949,2.949H3.273c-1.622,0-2.949-1.33-2.949-2.949V9.686
		c0-1.625,1.328-2.949,2.949-2.949h5.898V5.262c0-0.812,0.663-1.475,1.475-1.475h8.848c0.812,0,1.475,0.662,1.475,1.475v1.475h5.898
		c1.621,0,2.949,1.325,2.949,2.949V24.432z"/>
</g>
<rect x="23" y="10" width="3" height="2"/>
<g>
	<path d="M11.208,18.199l-1.203-0.018l-0.001-0.025c0-2.841,2.311-5.151,5.153-5.151c1.256,0,2.396,0.469,3.291,1.218l1.305-1.908
		c-1.265-1.001-2.859-1.603-4.596-1.603c-4.104,0-7.444,3.34-7.444,7.443l-1.111-0.014c-0.515-0.007-0.715,0.348-0.443,0.785
		l2.194,3.543c0.272,0.438,0.723,0.442,1.004,0.01l2.276-3.487C11.913,18.562,11.721,18.204,11.208,18.199z"/>
	<path d="M24.213,16.882l-2.194-3.546c-0.271-0.436-0.723-0.441-1.003-0.01l-2.277,3.49c-0.28,0.433-0.09,0.788,0.424,0.796
		l1.2,0.012l0.007,0.028c0,2.842-2.313,5.153-5.156,5.153c-1.256,0-2.394-0.469-3.289-1.223l-1.307,1.912
		c1.267,0.999,2.862,1.602,4.596,1.602c4.106,0,7.446-3.34,7.446-7.444l1.109,0.013C24.283,17.674,24.485,17.318,24.213,16.882z"/>
</g>
</svg>
