<?xml version="1.0" encoding="utf-8"?>
<!-- Generator: Adobe Illustrator 16.0.0, SVG Export Plug-In . SVG Version: 6.00 Build 0)  -->
<!DOCTYPE svg PUBLIC "-//W3C//DTD SVG 1.1//EN" "http://www.w3.org/Graphics/SVG/1.1/DTD/svg11.dtd">
<svg version="1.1" id="Layer_1" xmlns="http://www.w3.org/2000/svg" xmlns:xlink="http://www.w3.org/1999/xlink" x="0px" y="0px"
	 width="45px" height="45px" viewBox="0 0 45 45" enable-background="new 0 0 45 45" xml:space="preserve">
<path opacity="0.7" fill="#FFFFFF" enable-background="new    " d="M42.043,24.009c0,9.685-7.854,17.536-17.535,17.536h-3.016
	c-9.686,0-17.538-7.852-17.538-17.536v-3.016c0.001-9.686,7.853-17.538,17.538-17.538h3.016c9.682,0,17.535,7.852,17.535,17.538
	V24.009z"/>
<path fill="#303030" d="M22.5,0C10.315,0,0.438,9.877,0.438,22.062c0,12.184,9.877,22.061,22.062,22.061s22.062-9.877,22.062-22.061
	S34.686,0,22.5,0z M11.931,12.691c0-0.375,0.305-0.681,0.681-0.681h5.068c0.375,0,0.681,0.305,0.681,0.681v5.068
	c0,0.375-0.306,0.681-0.681,0.681h-5.067c-0.376,0-0.682-0.306-0.682-0.681L11.931,12.691L11.931,12.691z M18.471,32.354
	c0,0.377-0.304,0.682-0.681,0.682h-5.068c-0.376,0-0.682-0.305-0.682-0.682v-5.068c0-0.376,0.305-0.68,0.682-0.68h5.067
	c0.377,0,0.682,0.304,0.682,0.68L18.471,32.354L18.471,32.354z M18.471,24.986c0,0.377-0.304,0.684-0.681,0.684h-5.068
	c-0.376,0-0.682-0.307-0.682-0.684V19.92c0-0.376,0.305-0.681,0.682-0.681h5.067c0.377,0,0.682,0.305,0.682,0.681L18.471,24.986
	L18.471,24.986z M19.187,12.691c0-0.375,0.305-0.681,0.681-0.681h5.067c0.377,0,0.683,0.305,0.683,0.681v5.068
	c0,0.375-0.306,0.681-0.683,0.681h-5.067c-0.376,0-0.681-0.306-0.681-0.681V12.691z M25.728,32.354c0,0.377-0.306,0.682-0.684,0.682
	h-5.066c-0.376,0-0.682-0.305-0.682-0.682v-5.068c0-0.376,0.306-0.68,0.682-0.68h5.066c0.378,0,0.684,0.304,0.684,0.68V32.354z
	 M25.728,24.986c0,0.377-0.306,0.684-0.684,0.684h-5.066c-0.376,0-0.682-0.307-0.682-0.684V19.92c0-0.376,0.306-0.681,0.682-0.681
	h5.066c0.378,0,0.684,0.305,0.684,0.681V24.986z M26.334,12.691c0-0.375,0.305-0.681,0.68-0.681h5.068
	c0.377,0,0.684,0.305,0.684,0.681v5.068c0,0.375-0.307,0.681-0.684,0.681h-5.068c-0.375,0-0.68-0.306-0.68-0.681V12.691z
	 M32.873,32.354c0,0.377-0.307,0.682-0.682,0.682h-5.066c-0.378,0-0.683-0.305-0.683-0.682v-5.068c0-0.376,0.305-0.68,0.683-0.68
	h5.066c0.375,0,0.682,0.304,0.682,0.68V32.354z M32.873,24.986c0,0.377-0.307,0.684-0.682,0.684h-5.066
	c-0.378,0-0.683-0.307-0.683-0.684V19.92c0-0.376,0.305-0.681,0.683-0.681h5.066c0.375,0,0.682,0.305,0.682,0.681V24.986z"/>
</svg>
