<?xml version="1.0" encoding="utf-8"?>
<!-- Generator: Adobe Illustrator 16.0.0, SVG Export Plug-In . SVG Version: 6.00 Build 0)  -->
<!DOCTYPE svg PUBLIC "-//W3C//DTD SVG 1.1//EN" "http://www.w3.org/Graphics/SVG/1.1/DTD/svg11.dtd">
<svg version="1.1" id="Layer_1" xmlns="http://www.w3.org/2000/svg" xmlns:xlink="http://www.w3.org/1999/xlink" x="0px" y="0px"
	 width="25px" height="25px" viewBox="0 0 25 25" enable-background="new 0 0 25 25" xml:space="preserve">
<rect x="0.062" y="-0.062" width="25.314" height="25.125"/>
<g id="wvt1ae_1_">
	<g>
		<path fill="#FFFFFF" d="M19.523,0.888c-2.163,1.954-4.581,4.313-7.221,6.696c2.167,0,3.705,0,5.028,0
			c-3.252,3.35-6.491,6.684-9.962,10.26c1.286-2.648,2.477-5.097,3.802-7.822c-1.9,0-3.486,0-5.578,0
			c2.015-3.286,3.809-6.21,5.602-9.135c2.491,0,4.98,0.043,7.471,0.017C18.934,0.901,19.523,0.888,19.523,0.888z"/>
	</g>
</g>
<g>
	<path fill="#FFFFFF" d="M6.322,22.68H3.859l-0.567,1.565H2.814l2.062-5.612h0.436l2.046,5.612H6.881L6.322,22.68z M4.006,22.268
		h2.166l-1.064-2.976H5.085L4.006,22.268z"/>
	<path fill="#FFFFFF" d="M12.104,18.633v3.728c0,0.616-0.189,1.099-0.566,1.445c-0.377,0.348-0.864,0.521-1.457,0.521
		c-0.586,0-1.064-0.174-1.436-0.521c-0.371-0.349-0.557-0.83-0.557-1.444v-3.728H8.55v3.728c0,0.483,0.143,0.866,0.429,1.15
		c0.287,0.284,0.654,0.427,1.101,0.427c0.457,0,0.833-0.142,1.125-0.425c0.293-0.282,0.439-0.666,0.439-1.152v-3.728H12.104z"/>
	<path fill="#FFFFFF" d="M17.273,19.026h-1.912v5.219h-0.459v-5.219h-1.977v-0.394h4.348V19.026z"/>
	<path fill="#FFFFFF" d="M22.185,21.898c0,0.724-0.199,1.311-0.596,1.758c-0.397,0.446-0.93,0.67-1.599,0.67
		c-0.657,0-1.182-0.224-1.574-0.67c-0.392-0.447-0.587-1.034-0.587-1.758v-0.914c0-0.722,0.194-1.309,0.585-1.757
		c0.391-0.45,0.915-0.676,1.573-0.676c0.668,0,1.201,0.226,1.6,0.676c0.398,0.448,0.598,1.035,0.598,1.757V21.898z M21.726,20.978
		c0-0.607-0.153-1.096-0.461-1.466c-0.307-0.37-0.733-0.555-1.277-0.555c-0.535,0-0.952,0.185-1.25,0.555s-0.446,0.858-0.446,1.466
		v0.921c0,0.61,0.149,1.103,0.449,1.472c0.299,0.371,0.716,0.555,1.25,0.555c0.548,0,0.975-0.183,1.278-0.553
		c0.305-0.369,0.457-0.859,0.457-1.474V20.978z"/>
</g>
</svg>
