<?xml version="1.0" encoding="utf-8"?>
<!-- Generator: Adobe Illustrator 16.0.0, SVG Export Plug-In . SVG Version: 6.00 Build 0)  -->
<!DOCTYPE svg PUBLIC "-//W3C//DTD SVG 1.1//EN" "http://www.w3.org/Graphics/SVG/1.1/DTD/svg11.dtd">
<svg version="1.1" id="Layer_1" xmlns="http://www.w3.org/2000/svg" xmlns:xlink="http://www.w3.org/1999/xlink" x="0px" y="0px"
	 width="30px" height="30px" viewBox="0 0 30 30" enable-background="new 0 0 30 30" xml:space="preserve">
<path fill="#00CDD2" d="M14.562,0.634c-6.004,0-10.875,4.872-10.875,10.876c0,4.842,3.168,8.942,7.544,10.348l3.331,7.776
	l3.335-7.776c4.371-1.406,7.54-5.506,7.54-10.348C25.438,5.506,20.57,0.634,14.562,0.634z M19.31,16.948
	c-1.278,1.114-2.924,1.812-4.747,1.812s-3.469-0.697-4.744-1.812c-1.521-1.332-2.506-3.265-2.506-5.438c0-4,3.253-7.251,7.25-7.251
	c4,0,7.25,3.251,7.25,7.251C21.812,13.684,20.832,15.616,19.31,16.948z"/>
</svg>
