<?xml version="1.0" encoding="utf-8"?>
<!-- Generator: Adobe Illustrator 16.0.0, SVG Export Plug-In . SVG Version: 6.00 Build 0)  -->
<!DOCTYPE svg PUBLIC "-//W3C//DTD SVG 1.1//EN" "http://www.w3.org/Graphics/SVG/1.1/DTD/svg11.dtd">
<svg version="1.1" id="Layer_1" xmlns="http://www.w3.org/2000/svg" xmlns:xlink="http://www.w3.org/1999/xlink" x="0px" y="0px"
	 width="50px" height="50px" viewBox="25 25 50 50" enable-background="new 25 25 50 50" xml:space="preserve">
<path fill="#00CDD2" d="M44.118,27.966c-2.769,4.675-4.842,9.589-5.347,15.081c-0.129,1.391,0.224,1.788,1.618,1.882
	c2.82,0.194,5.428,1.143,7.486,3.161c1.029,1.003,1.356,0.712,1.818-0.466c3.181-8.008,8.898-14.041,15.29-19.539
	c0.119-0.106,0.344-0.086,0.913-0.212c-1.14,2.192-2.38,4.011-3.159,6.056c-1.205,3.148-2.158,6.338-2.499,9.708
	c-0.126,1.233,0.269,1.518,1.466,1.609c6.691,0.524,11.193,4.968,11.868,11.58c0.59,5.725-3.522,11.492-9.583,13.043
	c-5.08,1.297-9.536-0.041-12.979-4.093c-0.912-1.066-1.32-1.087-2.287-0.058c-3.702,3.972-8.274,5.339-13.462,3.65
	c-5.197-1.696-7.91-5.483-8.689-10.907c-0.674-4.719,0.424-9.042,2.429-13.157c3.458-7.103,8.632-12.848,14.814-17.708
	C43.912,27.717,44.012,27.84,44.118,27.966z"/>
</svg>
