<?xml version="1.0" encoding="utf-8"?>
<!-- Generator: Adobe Illustrator 16.0.0, SVG Export Plug-In . SVG Version: 6.00 Build 0)  -->
<!DOCTYPE svg PUBLIC "-//W3C//DTD SVG 1.1//EN" "http://www.w3.org/Graphics/SVG/1.1/DTD/svg11.dtd">
<svg version="1.1" id="Layer_1" xmlns="http://www.w3.org/2000/svg" xmlns:xlink="http://www.w3.org/1999/xlink" x="0px" y="0px"
	 width="30px" height="30px" viewBox="0 0 30 30" enable-background="new 0 0 30 30" xml:space="preserve">
<g>
	<polygon fill="#4D4D4D" points="19.583,17.778 10.418,17.778 15,10.759 	"/>
	<path fill="#4D4D4D" d="M15,4.089c6.016,0,10.911,4.896,10.911,10.912S21.017,25.911,15,25.911c-6.015,0-10.911-4.895-10.911-10.91
		S8.985,4.089,15,4.089 M15,3.292c-6.466,0-11.708,5.243-11.708,11.709c0,6.466,5.243,11.708,11.708,11.708
		c6.466,0,11.708-5.242,11.708-11.708C26.709,8.535,21.467,3.292,15,3.292L15,3.292z"/>
</g>
</svg>
