<?xml version="1.0" encoding="utf-8"?>
<!-- Generator: Adobe Illustrator 16.0.0, SVG Export Plug-In . SVG Version: 6.00 Build 0)  -->
<!DOCTYPE svg PUBLIC "-//W3C//DTD SVG 1.1//EN" "http://www.w3.org/Graphics/SVG/1.1/DTD/svg11.dtd">
<svg version="1.1" id="Layer_1" xmlns="http://www.w3.org/2000/svg" xmlns:xlink="http://www.w3.org/1999/xlink" x="0px" y="0px"
	 width="25px" height="25px" viewBox="2.5 2.5 25 25" enable-background="new 2.5 2.5 25 25" xml:space="preserve">
<rect x="-0.812" y="-0.625" width="31.688" height="31.438"/>
<g>
	<path fill="#FFFFFF" d="M26.129,22.219c0,1.215-0.996,2.212-2.212,2.212H6.223c-1.216,0-2.211-0.997-2.211-2.212V11.161
		c0-1.219,0.996-2.212,2.211-2.212h4.423V7.843c0-0.609,0.498-1.106,1.106-1.106h6.635c0.609,0,1.106,0.497,1.106,1.106v1.106h4.423
		c1.216,0,2.212,0.994,2.212,2.212V22.219z"/>
</g>
<rect x="21.017" y="11.396" width="2.25" height="1.5"/>
<g>
	<path d="M12.174,17.545l-0.902-0.013l0-0.02c0-2.13,1.733-3.863,3.864-3.863c0.942,0,1.796,0.352,2.468,0.914l0.979-1.431
		c-0.948-0.75-2.144-1.202-3.447-1.202c-3.078,0-5.583,2.505-5.583,5.582L8.72,17.501c-0.386-0.005-0.536,0.262-0.332,0.589
		l1.645,2.657c0.204,0.329,0.542,0.332,0.753,0.008l1.707-2.615C12.703,17.817,12.559,17.549,12.174,17.545z"/>
	<path d="M21.927,16.558l-1.645-2.66c-0.204-0.327-0.543-0.331-0.753-0.007l-1.707,2.617c-0.211,0.325-0.068,0.591,0.317,0.597
		l0.9,0.01l0.005,0.021c0,2.132-1.735,3.864-3.867,3.864c-0.941,0-1.795-0.352-2.466-0.917l-0.98,1.434
		c0.95,0.75,2.146,1.201,3.446,1.201c3.08,0,5.584-2.504,5.584-5.582l0.832,0.01C21.979,17.151,22.13,16.885,21.927,16.558z"/>
</g>
</svg>
