<?xml version="1.0" encoding="utf-8"?>
<!-- Generator: Adobe Illustrator 16.0.0, SVG Export Plug-In . SVG Version: 6.00 Build 0)  -->
<!DOCTYPE svg PUBLIC "-//W3C//DTD SVG 1.1//EN" "http://www.w3.org/Graphics/SVG/1.1/DTD/svg11.dtd">
<svg version="1.1" id="Layer_1" xmlns="http://www.w3.org/2000/svg" xmlns:xlink="http://www.w3.org/1999/xlink" x="0px" y="0px"
	 width="30px" height="30px" viewBox="0 0 30 30" enable-background="new 0 0 30 30" xml:space="preserve">
<path fill="#FFFFFF" d="M24.661,4H5.339C4.677,4,4,4.677,4,5.339V24.66C4,25.322,4.677,26,5.339,26H16v-9h-3v-3h3v-2.247
	c0-2.805,1.342-4.333,3.844-4.333C21.043,7.421,22,7.51,22,7.55V10h-1.249C19.39,10,19,11.129,19,12.078V14h3.372l-0.423,3H19v9
	h5.661C25.322,26,26,25.322,26,24.66V5.339C26,4.677,25.322,4,24.661,4z"/>
</svg>
