<?xml version="1.0" encoding="utf-8"?>
<!-- Generator: Adobe Illustrator 16.0.0, SVG Export Plug-In . SVG Version: 6.00 Build 0)  -->
<!DOCTYPE svg PUBLIC "-//W3C//DTD SVG 1.1//EN" "http://www.w3.org/Graphics/SVG/1.1/DTD/svg11.dtd">
<svg version="1.1" id="Layer_1" xmlns="http://www.w3.org/2000/svg" xmlns:xlink="http://www.w3.org/1999/xlink" x="0px" y="0px"
	 width="30px" height="30px" viewBox="0 0 30 30" enable-background="new 0 0 30 30" xml:space="preserve">
<g>
	<path fill="black" d="M0.539,3.25v23.5h28.922V3.25H0.539z M27.653,24.942H2.347V5.058h25.307V24.942z"/>
	<path fill="black" d="M11.385,19.52l5.422-1.808l1.808-5.423l1.808,3.616l1.808,5.423l1.808,1.808h1.808V6.865H4.154v16.27H7.77
		L11.385,19.52z M10.485,8.673c1.497,0,2.708,1.213,2.708,2.71c0,1.499-1.211,2.713-2.708,2.713c-1.5,0-2.715-1.214-2.715-2.713
		C7.77,9.886,8.984,8.673,10.485,8.673z"/>
</g>
</svg>
