<?xml version="1.0" encoding="utf-8"?>
<!-- Generator: Adobe Illustrator 16.0.0, SVG Export Plug-In . SVG Version: 6.00 Build 0)  -->
<!DOCTYPE svg PUBLIC "-//W3C//DTD SVG 1.1//EN" "http://www.w3.org/Graphics/SVG/1.1/DTD/svg11.dtd">
<svg version="1.1" xmlns="http://www.w3.org/2000/svg" xmlns:xlink="http://www.w3.org/1999/xlink" x="0px" y="0px" width="16px"
	 height="16px" viewBox="0 0 16 16" enable-background="new 0 0 16 16" xml:space="preserve">

<g id="Layer_2">
	<path fill="#FFFFFF" d="M14.795,13.416l-2.446-2.445c0.617-0.968,1.166-2.386,1.166-3.623c0-3.435-2.785-6.218-6.218-6.218
		c-3.438,0-6.224,2.783-6.224,6.218c0,3.438,2.786,6.221,6.224,6.221c1.231,0,2.715-0.652,3.68-1.274l2.448,2.446
		c0.174,0.174,0.457,0.174,0.631,0l0.739-0.696C14.969,13.873,14.969,13.59,14.795,13.416z M7.297,12.055
		c-2.596,0-4.707-2.111-4.707-4.707c0-2.593,2.111-4.702,4.707-4.702c2.593,0,4.701,2.109,4.701,4.702
		c0,0.973-0.296,1.878-0.804,2.631C10.349,11.229,8.917,12.055,7.297,12.055z"/>
</g>
</svg>
