<?xml version="1.0" encoding="utf-8"?>
<!-- Generator: Adobe Illustrator 16.0.0, SVG Export Plug-In . SVG Version: 6.00 Build 0)  -->
<!DOCTYPE svg PUBLIC "-//W3C//DTD SVG 1.1//EN" "http://www.w3.org/Graphics/SVG/1.1/DTD/svg11.dtd">
<svg version="1.1" id="Layer_1" xmlns="http://www.w3.org/2000/svg" xmlns:xlink="http://www.w3.org/1999/xlink" x="0px" y="0px"
	 width="30px" height="30px" viewBox="0 0 30 30" enable-background="new 0 0 30 30" xml:space="preserve">
<path fill="#ABABAB" d="M13.204,8.583c-0.846,1.429-1.479,2.93-1.634,4.606c-0.04,0.425,0.068,0.547,0.494,0.575
	c0.861,0.06,1.659,0.349,2.286,0.965c0.314,0.306,0.415,0.217,0.556-0.141c0.973-2.447,2.718-4.29,4.671-5.97
	c0.036-0.032,0.104-0.026,0.277-0.065c-0.347,0.67-0.727,1.226-0.963,1.851c-0.369,0.961-0.661,1.936-0.764,2.966
	c-0.039,0.376,0.08,0.463,0.446,0.491c2.045,0.161,3.42,1.517,3.626,3.537c0.18,1.749-1.077,3.512-2.927,3.985
	c-1.552,0.396-2.913-0.014-3.965-1.251c-0.278-0.326-0.403-0.332-0.699-0.017c-1.131,1.212-2.527,1.63-4.112,1.113
	c-1.587-0.519-2.417-1.675-2.655-3.332c-0.205-1.439,0.13-2.762,0.743-4.018c1.056-2.17,2.636-3.924,4.524-5.409
	C13.14,8.508,13.171,8.545,13.204,8.583z"/>
</svg>
