<?xml version="1.0" encoding="utf-8"?>
<!-- Generator: Adobe Illustrator 16.0.0, SVG Export Plug-In . SVG Version: 6.00 Build 0)  -->
<!DOCTYPE svg PUBLIC "-//W3C//DTD SVG 1.1//EN" "http://www.w3.org/Graphics/SVG/1.1/DTD/svg11.dtd">
<svg version="1.1" id="Layer_1" xmlns="http://www.w3.org/2000/svg" xmlns:xlink="http://www.w3.org/1999/xlink" x="0px" y="0px"
	 width="30px" height="30px" viewBox="0 0 30 30" enable-background="new 0 0 30 30" xml:space="preserve">
<g>
	<path fill="#00CDD2" d="M14.556,15.565c0.142,0.254,0.457,0.329,0.696,0.167l0.438-0.296c0.241-0.162,0.297-0.485,0.124-0.719
		l-3.208-4.311c-0.173-0.234-0.456-0.331-0.625-0.216c-0.171,0.115-0.194,0.417-0.053,0.67L14.556,15.565z"/>
	<path fill="#00CDD2" d="M16.191,10.484v1.039c1.385,0.492,2.587,2.018,2.587,3.571c0,1.971-1.808,3.778-3.778,3.778
		c-1.971,0-3.779-1.808-3.779-3.778c0-0.419,0.078-0.818,0.21-1.192h-1.044c-0.099,0.381-0.152,0.779-0.152,1.192
		c0,2.631,2.134,4.765,4.765,4.765c2.631,0,4.765-2.134,4.765-4.765C19.765,12.874,18.246,11.015,16.191,10.484z"/>
</g>
</svg>
