<?xml version="1.0" encoding="utf-8"?>
<!-- Generator: Adobe Illustrator 16.0.0, SVG Export Plug-In . SVG Version: 6.00 Build 0)  -->
<!DOCTYPE svg PUBLIC "-//W3C//DTD SVG 1.1//EN" "http://www.w3.org/Graphics/SVG/1.1/DTD/svg11.dtd">
<svg version="1.1" id="Layer_1" xmlns="http://www.w3.org/2000/svg" xmlns:xlink="http://www.w3.org/1999/xlink" x="0px" y="0px"
	 width="60px" height="60px" viewBox="0 0 60 60" enable-background="new 0 0 60 60" xml:space="preserve">
<path fill="#00CDD2" d="M30.406,13.843c-7.048,0-12.766,5.718-12.766,12.766c0,5.685,3.719,10.498,8.855,12.147l3.91,9.13
	l3.915-9.13c5.132-1.649,8.851-6.463,8.851-12.147C43.172,19.561,37.458,13.843,30.406,13.843z M35.979,32.991
	c-1.499,1.31-3.432,2.129-5.572,2.129c-2.14,0-4.072-0.819-5.568-2.129c-1.787-1.562-2.942-3.829-2.942-6.383
	c0-4.694,3.819-8.51,8.51-8.51c4.695,0,8.511,3.816,8.511,8.51C38.917,29.162,37.766,31.429,35.979,32.991z"/>
</svg>
