<?xml version="1.0" encoding="utf-8"?>
<!-- Generator: Adobe Illustrator 16.0.0, SVG Export Plug-In . SVG Version: 6.00 Build 0)  -->
<!DOCTYPE svg PUBLIC "-//W3C//DTD SVG 1.1//EN" "http://www.w3.org/Graphics/SVG/1.1/DTD/svg11.dtd">
<svg version="1.1" id="Layer_1" xmlns="http://www.w3.org/2000/svg" xmlns:xlink="http://www.w3.org/1999/xlink" x="0px" y="0px"
	 width="20px" height="20px" viewBox="5 5 20 20" enable-background="new 5 5 20 20" xml:space="preserve">
<rect x="2.188" y="2.062" display="none" stroke="#000000" stroke-miterlimit="10" width="25.625" height="25.125"/>
<g>
	<rect x="5.252" y="5.252" width="6.223" height="6.223"/>
	<polygon fill="#FFFFFF" points="5.252,5.252 5.252,5.656 11.073,5.656 11.073,11.073 5.656,11.073 5.656,5.252 5.252,5.252 
		5.252,5.656 5.252,5.252 4.849,5.252 4.849,11.879 11.879,11.879 11.879,4.849 4.849,4.849 4.849,5.252 	"/>
	<rect x="11.476" y="5.252" width="6.915" height="6.223"/>
	<polygon fill="#FFFFFF" points="11.476,5.252 11.476,5.656 17.987,5.656 17.987,11.073 11.879,11.073 11.879,5.252 11.476,5.252 
		11.476,5.656 11.476,5.252 11.073,5.252 11.073,11.879 18.794,11.879 18.794,4.849 11.073,4.849 11.073,5.252 	"/>
	<rect x="18.391" y="5.252" width="6.224" height="6.223"/>
	<polygon fill="#FFFFFF" points="18.391,5.252 18.391,5.656 24.211,5.656 24.211,11.073 18.794,11.073 18.794,5.252 18.391,5.252 
		18.391,5.656 18.391,5.252 17.987,5.252 17.987,11.879 25.018,11.879 25.018,4.849 17.987,4.849 17.987,5.252 	"/>
	<rect x="5.252" y="11.476" width="6.223" height="6.915"/>
	<polygon fill="#FFFFFF" points="5.252,11.476 5.252,11.879 11.073,11.879 11.073,17.987 5.656,17.987 5.656,11.476 5.252,11.476 
		5.252,11.879 5.252,11.476 4.849,11.476 4.849,18.794 11.879,18.794 11.879,11.073 4.849,11.073 4.849,11.476 	"/>
	<rect x="11.476" y="11.476" width="6.915" height="6.915"/>
	<polygon fill="#FFFFFF" points="11.476,11.476 11.476,11.879 17.987,11.879 17.987,17.987 11.879,17.987 11.879,11.476 
		11.476,11.476 11.476,11.879 11.476,11.476 11.073,11.476 11.073,18.794 18.794,18.794 18.794,11.073 11.073,11.073 11.073,11.476 
			"/>
	<rect x="18.391" y="11.476" width="6.224" height="6.915"/>
	<polygon fill="#FFFFFF" points="18.391,11.476 18.391,11.879 24.211,11.879 24.211,17.987 18.794,17.987 18.794,11.476 
		18.391,11.476 18.391,11.879 18.391,11.476 17.987,11.476 17.987,18.794 25.018,18.794 25.018,11.073 17.987,11.073 17.987,11.476 
			"/>
	<rect x="5.252" y="18.391" width="6.223" height="6.224"/>
	<polygon fill="#FFFFFF" points="5.252,18.391 5.252,18.794 11.073,18.794 11.073,24.211 5.656,24.211 5.656,18.391 5.252,18.391 
		5.252,18.794 5.252,18.391 4.849,18.391 4.849,25.018 11.879,25.018 11.879,17.987 4.849,17.987 4.849,18.391 	"/>
	<rect x="11.476" y="18.391" width="6.915" height="6.224"/>
	<polygon fill="#FFFFFF" points="11.476,18.391 11.476,18.794 17.987,18.794 17.987,24.211 11.879,24.211 11.879,18.391 
		11.476,18.391 11.476,18.794 11.476,18.391 11.073,18.391 11.073,25.018 18.794,25.018 18.794,17.987 11.073,17.987 11.073,18.391 
			"/>
	<rect x="18.391" y="18.391" width="6.224" height="6.224"/>
	<polygon fill="#FFFFFF" points="18.391,18.391 18.391,18.794 24.211,18.794 24.211,24.211 18.794,24.211 18.794,18.391 
		18.391,18.391 18.391,18.794 18.391,18.391 17.987,18.391 17.987,25.018 25.018,25.018 25.018,17.987 17.987,17.987 17.987,18.391 
			"/>
</g>
</svg>
