<?xml version="1.0" encoding="utf-8"?>
<!-- Generator: Adobe Illustrator 16.0.0, SVG Export Plug-In . SVG Version: 6.00 Build 0)  -->
<!DOCTYPE svg PUBLIC "-//W3C//DTD SVG 1.1//EN" "http://www.w3.org/Graphics/SVG/1.1/DTD/svg11.dtd">
<svg version="1.1" id="Layer_1" xmlns="http://www.w3.org/2000/svg" xmlns:xlink="http://www.w3.org/1999/xlink" x="0px" y="0px"
	 width="30px" height="30px" viewBox="0 0 30 30" enable-background="new 0 0 30 30" xml:space="preserve">
<g>
	<path fill="#00CDD2" d="M16.777,3.61l5.332,2.563v7.301c0.572-0.148,1.16-0.251,1.777-0.251V5.054l-7.998-3.846L8.779,4.627
		L0.781,0.781v21.524l7.998,3.846l7.109-3.419l0.889,0.43V3.61z M7.891,23.752l-5.332-2.565V3.61l5.332,2.563V23.752z M15,21.187
		l-5.332,2.565V6.173L15,3.61V21.187z"/>
	<path fill="#00CDD2" d="M23.887,15c-2.944,0-5.332,2.385-5.332,5.332c0,2.024,1.139,3.76,2.798,4.666l2.534,4.221l2.533-4.221
		c1.66-0.906,2.799-2.642,2.799-4.666C29.219,17.386,26.834,15,23.887,15z M23.887,22.109c-0.982,0-1.777-0.795-1.777-1.777
		s0.795-1.777,1.777-1.777s1.777,0.795,1.777,1.777S24.869,22.109,23.887,22.109z"/>
</g>
</svg>
