<?xml version="1.0" encoding="utf-8"?>
<!-- Generator: Adobe Illustrator 16.0.0, SVG Export Plug-In . SVG Version: 6.00 Build 0)  -->
<!DOCTYPE svg PUBLIC "-//W3C//DTD SVG 1.1//EN" "http://www.w3.org/Graphics/SVG/1.1/DTD/svg11.dtd">
<svg version="1.1" id="Layer_1" xmlns="http://www.w3.org/2000/svg" xmlns:xlink="http://www.w3.org/1999/xlink" x="0px" y="0px"
	 width="60px" height="60px" viewBox="0 0 60 60" enable-background="new 0 0 60 60" xml:space="preserve">
<path fill="#FFFFFF" d="M27.136,19.244c-1.438,2.427-2.514,4.979-2.775,7.829c-0.067,0.722,0.116,0.928,0.84,0.978
	c1.464,0.1,2.818,0.593,3.886,1.64c0.533,0.521,0.704,0.37,0.944-0.242c1.65-4.157,4.619-7.289,7.937-10.144
	c0.062-0.055,0.179-0.044,0.475-0.109c-0.592,1.138-1.236,2.082-1.64,3.144c-0.626,1.634-1.121,3.29-1.298,5.04
	c-0.065,0.64,0.139,0.788,0.761,0.836c3.474,0.271,5.81,2.577,6.16,6.01c0.307,2.973-1.828,5.967-4.974,6.771
	c-2.637,0.674-4.95-0.021-6.737-2.125c-0.474-0.553-0.687-0.563-1.188-0.029c-1.922,2.061-4.294,2.771-6.988,1.895
	c-2.698-0.881-4.106-2.847-4.511-5.662c-0.35-2.449,0.22-4.694,1.261-6.83c1.795-3.688,4.481-6.67,7.69-9.192
	C27.028,19.116,27.081,19.179,27.136,19.244z"/>
</svg>
