<?xml version="1.0" encoding="utf-8"?>
<!-- Generator: Adobe Illustrator 16.0.0, SVG Export Plug-In . SVG Version: 6.00 Build 0)  -->
<!DOCTYPE svg PUBLIC "-//W3C//DTD SVG 1.1//EN" "http://www.w3.org/Graphics/SVG/1.1/DTD/svg11.dtd">
<svg version="1.1" id="Layer_1" xmlns="http://www.w3.org/2000/svg" xmlns:xlink="http://www.w3.org/1999/xlink" x="0px" y="0px"
	 width="25px" height="25px" viewBox="0 0 25 25" enable-background="new 0 0 25 25" xml:space="preserve">
<rect x="-0.1" y="-0.062" width="25.314" height="25.125"/>
<g id="wvt1ae_1_">
	<g>
		<path fill="#FFFFFF" d="M19.523,0.888c-2.163,1.954-4.581,4.313-7.221,6.696c2.167,0,3.705,0,5.028,0
			c-3.252,3.35-6.491,6.684-9.962,10.26c1.286-2.648,2.477-5.097,3.802-7.822c-1.9,0-3.486,0-5.578,0
			c2.015-3.286,3.809-6.21,5.602-9.135c2.491,0,4.98,0.043,7.471,0.017C18.934,0.901,19.523,0.888,19.523,0.888z"/>
	</g>
</g>
<text transform="matrix(1 0 0 1 7.2495 23.3936)" fill="#FFFFFF" font-family="'Roboto-Light'" font-size="7.3184">ON</text>
</svg>
