<?xml version="1.0" encoding="utf-8"?>
<!-- Generator: Adobe Illustrator 16.0.0, SVG Export Plug-In . SVG Version: 6.00 Build 0)  -->
<!DOCTYPE svg PUBLIC "-//W3C//DTD SVG 1.1//EN" "http://www.w3.org/Graphics/SVG/1.1/DTD/svg11.dtd">
<svg version="1.1" id="Layer_2" xmlns="http://www.w3.org/2000/svg" xmlns:xlink="http://www.w3.org/1999/xlink" x="0px" y="0px"
	 width="60px" height="60px" viewBox="0 0 60 60" enable-background="new 0 0 60 60" xml:space="preserve">
<g>
	<path fill="#00CDD2" d="M8.125,22.802c3.875,0,6.744,2.868,6.744,6.588v0.156c0,3.719-2.868,6.587-6.744,6.587
		s-6.743-2.868-6.743-6.587V29.39C1.383,25.67,4.25,22.802,8.125,22.802z"/>
	<path fill="#00CDD2" d="M30.295,22.802c3.876,0,6.743,2.868,6.743,6.588v0.156c0,3.719-2.866,6.587-6.743,6.587
		c-3.875,0-6.743-2.868-6.743-6.587V29.39C23.553,25.67,26.42,22.802,30.295,22.802z"/>
	<path fill="#00CDD2" d="M52.466,22.802c3.874,0,6.741,2.868,6.741,6.588v0.156c0,3.719-2.867,6.587-6.741,6.587
		c-3.878,0-6.744-2.868-6.744-6.587V29.39C45.722,25.67,48.588,22.802,52.466,22.802z"/>
</g>
</svg>
