<?xml version="1.0" encoding="utf-8"?>
<!-- Generator: Adobe Illustrator 16.0.0, SVG Export Plug-In . SVG Version: 6.00 Build 0)  -->
<!DOCTYPE svg PUBLIC "-//W3C//DTD SVG 1.1//EN" "http://www.w3.org/Graphics/SVG/1.1/DTD/svg11.dtd">
<svg version="1.1" id="Layer_1" xmlns="http://www.w3.org/2000/svg" xmlns:xlink="http://www.w3.org/1999/xlink" x="0px" y="0px"
	 width="30px" height="30px" viewBox="0 0 30 30" enable-background="new 0 0 30 30" xml:space="preserve">
<path fill="#4D4D4D" d="M11.58,1.657c-1.693,2.857-2.96,5.86-3.267,9.216c-0.08,0.849,0.134,1.09,0.988,1.15
	c1.725,0.119,3.318,0.699,4.574,1.93c0.627,0.613,0.829,0.436,1.112-0.283c1.943-4.893,5.437-8.58,9.341-11.939
	c0.072-0.065,0.21-0.053,0.559-0.13c-0.697,1.339-1.457,2.452-1.931,3.7c-0.735,1.923-1.317,3.871-1.526,5.932
	c-0.078,0.753,0.163,0.928,0.896,0.983c4.087,0.32,6.837,3.035,7.249,7.075c0.359,3.497-2.151,7.023-5.854,7.969
	c-3.104,0.797-5.828-0.021-7.932-2.501c-0.557-0.649-0.808-0.663-1.398-0.034c-2.261,2.426-5.054,3.262-8.226,2.229
	c-3.175-1.035-4.833-3.351-5.31-6.665c-0.412-2.88,0.26-5.524,1.483-8.039C4.453,7.91,7.613,4.399,11.39,1.43
	C11.454,1.506,11.515,1.581,11.58,1.657z"/>
</svg>
