<?xml version="1.0" encoding="utf-8"?>
<!DOCTYPE svg PUBLIC "-//W3C//DTD SVG 1.1//EN" "http://www.w3.org/Graphics/SVG/1.1/DTD/svg11.dtd">
<svg version="1.1" xmlns="http://www.w3.org/2000/svg" xmlns:xlink="http://www.w3.org/1999/xlink" x="0px" y="0px" width="45px"
	 height="45px" viewBox="-7.5 -7.5 45 45" enable-background="new -7.5 -7.5 45 45" xml:space="preserve">
<g id="Username" display="none">
	<path display="inline" fill="#FFFFFF" d="M25.014,20.613c-0.627-0.977-2.728-1.584-4.81-2.449
		c-2.081-0.868-2.574-1.168-2.574-1.168l-0.021-1.997c0,0,0.781-0.599,1.022-2.478c0.487,0.141,0.998-0.728,1.026-1.187
		c0.025-0.44-0.067-1.664-0.662-1.541c0.12-0.921,0.21-1.749,0.168-2.188c-0.156-1.604-1.734-3.295-4.162-3.295
		c-2.43,0-4.008,1.691-4.163,3.295c-0.042,0.438,0.046,1.268,0.167,2.188c-0.595-0.123-0.689,1.101-0.662,1.541
		c0.027,0.458,0.539,1.327,1.027,1.187c0.242,1.877,1.021,2.478,1.021,2.478l-0.02,1.997c0,0-0.493,0.3-2.574,1.168
		c-2.082,0.865-4.184,1.474-4.811,2.449c-0.561,0.875-0.393,5.076-0.393,5.076h20.807C25.404,25.689,25.574,21.488,25.014,20.613z"
		/>
</g>
</svg>
