<?xml version="1.0" encoding="utf-8"?>
<!DOCTYPE svg PUBLIC "-//W3C//DTD SVG 1.1//EN" "http://www.w3.org/Graphics/SVG/1.1/DTD/svg11.dtd">
<svg version="1.1" id="Layer_1" xmlns="http://www.w3.org/2000/svg" xmlns:xlink="http://www.w3.org/1999/xlink" x="0px" y="0px"
	 width="45px" height="45px" viewBox="0 0 45 45" enable-background="new 0 0 45 45" xml:space="preserve">
<path fill="#CCCCCC" d="M24.958,25.941c0,2.361-0.003,4.721,0.001,7.08c0.001,0.492-0.147,0.896-0.596,1.146
	c-0.688,0.383-1.565-0.086-1.634-0.873c-0.006-0.092-0.008-0.188-0.008-0.281c0-2.699,0-5.4,0-8.1c0-0.148,0.031-0.348-0.185-0.352
	c-0.218-0.004-0.19,0.191-0.19,0.344c0,2.736,0,5.473,0,8.209c0,0.664-0.402,1.117-1.027,1.178c-0.627,0.059-1.184-0.438-1.196-1.07
	c0-0.057,0-0.115,0-0.174c0-4.764,0-9.525,0-14.29c0-0.08,0.021-0.173-0.015-0.235c-0.037-0.069-0.121-0.142-0.195-0.152
	c-0.042-0.006-0.117,0.101-0.148,0.17c-0.023,0.054-0.006,0.128-0.006,0.192c0,1.615,0,3.229,0,4.844
	c-0.001,0.504-0.251,0.846-0.671,0.93c-0.595,0.119-1.063-0.256-1.081-0.861c-0.001-0.035,0-0.072,0-0.107
	c0-1.927-0.007-3.852,0.008-5.778c0-0.328,0.041-0.67,0.142-0.979c0.315-0.966,1.155-1.583,2.245-1.605
	c1.453-0.029,2.91-0.029,4.363,0.01c1.215,0.032,2.219,1.102,2.224,2.32c0.012,2.07,0.006,4.141,0.003,6.211
	c-0.002,0.465-0.368,0.816-0.835,0.816c-0.458,0.002-0.824-0.363-0.824-0.824c-0.001-1.605,0-3.212,0-4.82
	c0-0.065-0.001-0.13,0-0.196c0.001-0.149,0.002-0.327-0.19-0.331c-0.205-0.004-0.184,0.179-0.184,0.324
	C24.959,21.106,24.958,23.525,24.958,25.941z"/>
<path fill="#CCCCCC" d="M24.485,12.686c-0.006,1.098-0.9,1.993-1.988,1.986c-1.068-0.007-1.982-0.914-1.977-1.956
	c0.01-1.124,0.885-2.017,1.979-2.019C23.591,10.694,24.487,11.592,24.485,12.686z"/>
</svg>
