<?xml version="1.0" encoding="utf-8"?>
<!DOCTYPE svg PUBLIC "-//W3C//DTD SVG 1.1//EN" "http://www.w3.org/Graphics/SVG/1.1/DTD/svg11.dtd">
<svg version="1.1" xmlns="http://www.w3.org/2000/svg" xmlns:xlink="http://www.w3.org/1999/xlink" x="0px" y="0px" width="45px"
	 height="45px" viewBox="-7.5 -7.5 45 45" enable-background="new -7.5 -7.5 45 45" xml:space="preserve">
<g id="Birthdate" display="none">
	<g display="inline">
		<path fill="#FFFFFF" d="M23.229,23.208H6.773c-0.324,0-0.588,0.262-0.588,0.588c0,0.324,0.264,0.588,0.588,0.588h16.453
			c0.326,0,0.588-0.264,0.588-0.588C23.814,23.47,23.555,23.208,23.229,23.208z"/>
		<path fill="#FFFFFF" d="M7.949,14.981h14.14c0.326,0,0.588-0.265,0.588-0.588c0-0.326-0.262-0.588-0.588-0.588h-1.8v-2.9
			c0-0.344-0.279-0.625-0.624-0.625s-0.624,0.279-0.624,0.625v2.9h-3.453v-2.9c0-0.344-0.279-0.625-0.624-0.625
			c-0.344,0-0.625,0.279-0.625,0.625v2.9h-3.453v-2.9c0-0.344-0.28-0.625-0.624-0.625c-0.345,0-0.625,0.279-0.625,0.625v2.9H7.949
			c-0.324,0-0.588,0.262-0.588,0.588C7.361,14.717,7.625,14.981,7.949,14.981z"/>
		<path fill="#FFFFFF" d="M19.684,9.362c2.699,0-0.024-3.747-0.024-3.747S16.984,9.362,19.684,9.362z"/>
		<path fill="#FFFFFF" d="M14.909,9.362c2.7,0-0.025-3.747-0.025-3.747S12.209,9.362,14.909,9.362z"/>
		<path fill="#FFFFFF" d="M10.316,9.362c2.701,0-0.024-3.747-0.024-3.747S7.618,9.362,10.316,9.362z"/>
		<path fill="#FFFFFF" d="M8.536,22.033h12.929c0.649,0,1.176-0.525,1.176-1.177v-3.524c0-0.649-0.525-1.176-1.176-1.176h-0.697
			c-0.324,0-0.588,0.262-0.588,0.588c0,0.323-0.262,0.588-0.588,0.588H18.49c-0.324,0-0.588-0.265-0.588-0.588
			c0-0.326-0.262-0.588-0.588-0.588h-1.213c-0.322,0-0.588,0.262-0.588,0.588c0,0.323-0.262,0.588-0.587,0.588h-1.102
			c-0.324,0-0.589-0.265-0.589-0.588c0-0.326-0.26-0.588-0.586-0.588h-1.213c-0.323,0-0.588,0.262-0.588,0.588
			c0,0.323-0.262,0.588-0.586,0.588H9.161c-0.324,0-0.588-0.265-0.588-0.588c0-0.326-0.263-0.588-0.587-0.588
			c-0.344,0-0.625,0.28-0.625,0.625v4.075C7.361,21.508,7.887,22.033,8.536,22.033z"/>
	</g>
</g>
</svg>
