<?xml version="1.0" encoding="utf-8"?>
<!DOCTYPE svg PUBLIC "-//W3C//DTD SVG 1.1//EN" "http://www.w3.org/Graphics/SVG/1.1/DTD/svg11.dtd">
<svg version="1.1" id="Layer_1" xmlns="http://www.w3.org/2000/svg" xmlns:xlink="http://www.w3.org/1999/xlink" x="0px" y="0px"
	 width="45px" height="45px" viewBox="0 0 45 45" enable-background="new 0 0 45 45" xml:space="preserve">
<path fill="#CCCCCC" d="M26.992,26.799c-0.785,0-1.557,0-2.355,0c0,0.107,0,0.191,0,0.275c0,1.977,0,3.951,0,5.928
	c0,0.398-0.1,0.748-0.484,0.945c-0.551,0.281-1.196-0.074-1.25-0.691c-0.009-0.094-0.012-0.188-0.012-0.281c0-1.963,0-3.924,0-5.885
	c0-0.086,0-0.172,0-0.273c-0.154,0-0.287,0-0.455,0c0,0.086,0,0.17,0,0.252c0,2.035,0,4.07-0.002,6.104
	c0,0.426-0.262,0.758-0.665,0.854c-0.384,0.092-0.79-0.09-0.96-0.459c-0.068-0.15-0.096-0.334-0.096-0.502
	c-0.008-1.988-0.004-3.98-0.004-5.971c0-0.088,0-0.172,0-0.285c-0.794,0-1.572,0-2.377,0c0.146-0.562,0.284-1.092,0.424-1.621
	c0.58-2.199,1.16-4.4,1.736-6.603c0.029-0.112,0.137-0.276-0.053-0.332c-0.195-0.057-0.188,0.141-0.217,0.252
	c-0.409,1.529-0.812,3.06-1.219,4.589c-0.088,0.332-0.254,0.598-0.607,0.699c-0.335,0.096-0.637,0.033-0.876-0.223
	c-0.249-0.266-0.287-0.585-0.187-0.93c0.459-1.582,0.918-3.165,1.377-4.747c0.104-0.354,0.202-0.708,0.313-1.06
	c0.241-0.76,0.874-1.276,1.671-1.29c1.324-0.022,2.649-0.02,3.973,0.003c0.766,0.014,1.422,0.539,1.639,1.274
	c0.572,1.948,1.139,3.898,1.701,5.849c0.15,0.522-0.104,0.999-0.586,1.133c-0.494,0.137-0.943-0.145-1.088-0.693
	c-0.404-1.522-0.807-3.046-1.213-4.568c-0.031-0.122-0.021-0.335-0.213-0.291c-0.211,0.051-0.088,0.24-0.055,0.365
	c0.699,2.671,1.4,5.341,2.104,8.011C26.967,26.676,26.977,26.725,26.992,26.799z"/>
<path fill="#CCCCCC" d="M24.646,13.212c-0.02,1.158-0.904,2.002-2.071,1.981c-1.031-0.019-1.917-0.964-1.889-2.013
	c0.029-1.094,0.926-1.969,1.998-1.949C23.783,11.253,24.668,12.146,24.646,13.212z"/>
</svg>
