<?xml version="1.0" encoding="utf-8"?>
<!DOCTYPE svg PUBLIC "-//W3C//DTD SVG 1.1//EN" "http://www.w3.org/Graphics/SVG/1.1/DTD/svg11.dtd">
<svg version="1.1" xmlns="http://www.w3.org/2000/svg" xmlns:xlink="http://www.w3.org/1999/xlink" x="0px" y="0px" width="45px"
	 height="45px" viewBox="0 0 45 45" enable-background="new 0 0 45 45" xml:space="preserve">
<g id="password">
	<path fill="#FFFFFF" d="M29.498,20.038v-2.172c0-3.805-3.137-6.9-6.998-6.9c-3.857,0-6.998,3.095-6.998,6.9v2.172h-1.555v13.996
		h17.105V20.038H29.498z M23.586,30.924H21.01l0.655-3.566c-0.386-0.225-0.655-0.623-0.655-1.1c0-0.713,0.576-1.289,1.287-1.289
		s1.289,0.576,1.289,1.289c0,0.477-0.271,0.875-0.656,1.1L23.586,30.924z M26.389,20.038h-7.776v-2.172
		c0-2.055,1.78-3.79,3.888-3.79c2.108,0,3.889,1.735,3.889,3.79V20.038z"/>
</g>
</svg>
