<?xml version="1.0" encoding="utf-8"?>
<!-- Generator: Adobe Illustrator 16.0.0, SVG Export Plug-In . SVG Version: 6.00 Build 0)  -->
<!DOCTYPE svg PUBLIC "-//W3C//DTD SVG 1.1//EN" "http://www.w3.org/Graphics/SVG/1.1/DTD/svg11.dtd">
<svg version="1.1" xmlns="http://www.w3.org/2000/svg" xmlns:xlink="http://www.w3.org/1999/xlink" x="0px" y="0px" width="50px"
	 height="50px" viewBox="0 0 50 50" enable-background="new 0 0 50 50" xml:space="preserve">

<g id="icon-2">
	<g>
		<g>
			<path fill="#00cdd2" d="M40.012,34.339c4.934-8.061,2.379-17.91-4.873-23.512C27.34,4.801,16.37,7.855,10.756,15.123
				c-6.029,7.805-2.968,18.78,4.306,24.391c3.861,2.979,9.011,3.556,13.666,2.779c0.896-0.149,4.797-2.203,5.271-2.08
				c2.643,0.686,5.259,1.469,7.812,2.438c0.447,0.17,0.902-0.341,0.769-0.769c-0.835-2.675-1.67-5.351-2.505-8.025
				c-0.239-0.767-1.446-0.439-1.205,0.332c0.646,2.071,1.293,4.143,1.939,6.214c0.687,2.201,0.726,0.812,0.154,0.595
				c-1.953-0.741-3.997-1.275-6.011-1.825c-2.252-0.615-4.338,1.356-6.557,1.915c-6.325,1.593-12.746-1.569-16.561-6.508
				C3.779,24.152,12.362,9.894,24.413,8.924c12.941-1.042,20.996,14.202,14.519,24.784C38.51,34.397,39.592,35.025,40.012,34.339z"
				/>
		</g>
	</g>
</g>

</svg>
