<?xml version="1.0" encoding="utf-8"?>
<!DOCTYPE svg PUBLIC "-//W3C//DTD SVG 1.1//EN" "http://www.w3.org/Graphics/SVG/1.1/DTD/svg11.dtd">
<svg version="1.1" xmlns="http://www.w3.org/2000/svg" xmlns:xlink="http://www.w3.org/1999/xlink" x="0px" y="0px" width="40px"
	 height="40px" viewBox="0 0 40 40" enable-background="new 0 0 40 40" xml:space="preserve">
<g id="avatarMale">
	<path fill="#F1F0F0" d="M29.376,26.084c-0.617-0.96-2.685-1.558-4.735-2.411c-2.047-0.854-2.533-1.15-2.533-1.15l-0.019-1.965
		c0,0,0.768-0.589,1.006-2.438c0.48,0.139,0.983-0.716,1.011-1.167c0.025-0.434-0.067-1.638-0.651-1.517
		c0.118-0.906,0.206-1.721,0.165-2.153c-0.153-1.579-1.708-3.244-4.098-3.244s-3.944,1.665-4.097,3.244
		c-0.042,0.432,0.044,1.247,0.164,2.153c-0.585-0.121-0.678,1.083-0.651,1.517c0.028,0.451,0.53,1.306,1.011,1.167
		c0.238,1.849,1.006,2.438,1.006,2.438l-0.02,1.965c0,0-0.486,0.296-2.534,1.15c-2.049,0.854-4.118,1.451-4.734,2.411
		c-0.553,0.86-0.386,4.996-0.386,4.996h20.481C29.762,31.08,29.928,26.944,29.376,26.084z"/>
</g>
</svg>
