<?xml version="1.0" encoding="utf-8"?>
<!-- Generator: Adobe Illustrator 16.0.0, SVG Export Plug-In . SVG Version: 6.00 Build 0)  -->
<!DOCTYPE svg PUBLIC "-//W3C//DTD SVG 1.1//EN" "http://www.w3.org/Graphics/SVG/1.1/DTD/svg11.dtd">
<svg version="1.1" id="Layer_1" xmlns="http://www.w3.org/2000/svg" xmlns:xlink="http://www.w3.org/1999/xlink" x="0px" y="0px"
	 width="30px" height="30px" viewBox="0 0 30 30" enable-background="new 0 0 30 30" xml:space="preserve">
<g>
	<polygon fill="#FFFFFF" points="1.873,20.058 1.202,24.749 0.538,29.438 5.229,28.775 9.918,28.104 5.896,24.081 	"/>
	<polygon fill="#FFFFFF" points="11.244,24.056 9.905,22.715 21.973,10.646 19.286,7.964 7.218,20.028 5.877,18.691 17.944,6.623 
		16.604,5.285 3.199,18.691 11.244,26.734 24.65,13.325 23.309,11.987 	"/>
	<path fill="#FFFFFF" d="M28.809,6.711L23.45,1.346c-0.737-0.735-1.923-0.758-2.624-0.053l-0.132,0.194L20.66,1.454l-2.572,2.574
		l8.042,8.044L28.705,9.5l-0.036-0.037l0.194-0.126C29.571,8.63,29.549,7.447,28.809,6.711z"/>
</g>
</svg>
