<?xml version="1.0" encoding="utf-8"?>
<!-- Generator: Adobe Illustrator 16.0.0, SVG Export Plug-In . SVG Version: 6.00 Build 0)  -->
<!DOCTYPE svg PUBLIC "-//W3C//DTD SVG 1.1//EN" "http://www.w3.org/Graphics/SVG/1.1/DTD/svg11.dtd">
<svg version="1.1" id="Layer_1" xmlns="http://www.w3.org/2000/svg" xmlns:xlink="http://www.w3.org/1999/xlink" x="0px" y="0px"
	 width="30px" height="30px" viewBox="0 0 30 30" enable-background="new 0 0 30 30" xml:space="preserve">
<path fill="#FFFFFF" d="M22.9,13.676v7.945c0,0.729-0.592,1.324-1.324,1.324H8.334c-0.729,0-1.324-0.595-1.324-1.324V7.055h9.27
	l2.648-2.648H7.01c-1.461,0-2.648,1.186-2.648,2.648v14.566c0,2.194,1.779,3.973,3.973,3.973h13.242
	c2.196,0,3.973-1.778,3.973-3.973V11.027L22.9,13.676z"/>
<polygon fill="#FFFFFF" points="9.943,19.982 15.239,18.658 15.239,18.658 13.253,16.672 11.267,14.686 "/>
<path fill="#FFFFFF" d="M12.317,13.863l3.746,3.746l9.21-9.21c0.145-0.144,0.232-0.33,0.245-0.521
	c0.016-0.189-0.046-0.365-0.171-0.489L22.64,4.684l-0.104-0.103c-0.117-0.117-0.274-0.175-0.438-0.175
	c-0.199,0-0.408,0.084-0.571,0.248l-0.028,0.03l-2.651,2.648L12.317,13.863z"/>
</svg>
