<?xml version="1.0" encoding="utf-8"?>
<!-- Generator: Adobe Illustrator 16.0.0, SVG Export Plug-In . SVG Version: 6.00 Build 0)  -->
<!DOCTYPE svg PUBLIC "-//W3C//DTD SVG 1.1//EN" "http://www.w3.org/Graphics/SVG/1.1/DTD/svg11.dtd">
<svg version="1.1" id="Layer_1" xmlns="http://www.w3.org/2000/svg" xmlns:xlink="http://www.w3.org/1999/xlink" x="0px" y="0px"
	 width="30px" height="30px" viewBox="0 0 30 30" enable-background="new 0 0 30 30" xml:space="preserve">
<g>
	<path fill="#4D4D4D" d="M24.203,18.547c-0.991,0-1.805,0.812-1.805,1.805v-1.714c0-1.042-0.854-1.896-1.896-1.896
		c-0.762,0-1.41,0.46-1.713,1.111v-1.021c0-1.042-0.854-1.896-1.896-1.896c-0.762,0-1.41,0.46-1.713,1.111V9.523
		c0-0.992-0.811-1.805-1.805-1.805c-0.991,0-1.805,0.812-1.805,1.805v15.404l-2.556-3.071c-0.617-0.78-1.755-0.915-2.534-0.3
		c-0.779,0.615-0.913,1.756-0.3,2.534l3.183,3.867c0.617,0.779,1.932,1.417,2.926,1.417h11.914c0.993,0,1.805-0.812,1.805-1.805
		v-7.219C26.008,19.359,25.196,18.547,24.203,18.547z"/>
	<path fill="#4D4D4D" d="M13.917,4.109c0.497,0,0.902-0.406,0.902-0.902V1.402c0-0.495-0.405-0.902-0.902-0.902
		s-0.902,0.407-0.902,0.902v1.805C13.015,3.703,13.42,4.109,13.917,4.109z"/>
	<path fill="#4D4D4D" d="M9.406,8.621c0-0.495-0.405-0.902-0.902-0.902H4.894c-0.497,0-0.902,0.407-0.902,0.902
		c0,0.496,0.405,0.902,0.902,0.902h3.609C9,9.523,9.406,9.117,9.406,8.621z"/>
	<path fill="#4D4D4D" d="M18.429,8.621c0,0.496,0.406,0.902,0.902,0.902h3.609c0.497,0,0.902-0.406,0.902-0.902
		c0-0.495-0.405-0.902-0.902-0.902h-3.609C18.835,7.719,18.429,8.126,18.429,8.621z"/>
	<path fill="#4D4D4D" d="M18.429,5.373l2.888-2.166c0.398-0.298,0.479-0.867,0.18-1.264c-0.296-0.396-0.867-0.478-1.263-0.18
		l-2.887,2.166c-0.397,0.298-0.479,0.866-0.183,1.263C17.464,5.59,18.031,5.671,18.429,5.373z"/>
	<path fill="#4D4D4D" d="M9.406,5.373c0.398,0.298,0.966,0.217,1.262-0.181c0.3-0.397,0.218-0.965-0.18-1.263L7.601,1.764
		c-0.395-0.298-0.966-0.217-1.262,0.18c-0.3,0.396-0.218,0.966,0.18,1.264L9.406,5.373z"/>
</g>
</svg>
