<?xml version="1.0" encoding="utf-8"?>
<!-- Generator: Adobe Illustrator 16.0.0, SVG Export Plug-In . SVG Version: 6.00 Build 0)  -->
<!DOCTYPE svg PUBLIC "-//W3C//DTD SVG 1.1//EN" "http://www.w3.org/Graphics/SVG/1.1/DTD/svg11.dtd">
<svg version="1.1" id="Layer_1" xmlns="http://www.w3.org/2000/svg" xmlns:xlink="http://www.w3.org/1999/xlink" x="0px" y="0px"
	 width="30px" height="30px" viewBox="0 0 30 30" enable-background="new 0 0 30 30" xml:space="preserve">
<g>
	<defs>
		<circle id="SVGID_1_" cx="14.958" cy="15.709" r="12.708"/>
	</defs>
	<clipPath id="SVGID_2_">
		<use xlink:href="#SVGID_1_"  overflow="visible"/>
	</clipPath>
	<path clip-path="url(#SVGID_2_)" fill="none" stroke="#666666" stroke-width="0.5" stroke-miterlimit="10" d="M23.407,19.843
		c-0.522-0.815-2.275-1.321-4.015-2.045c-1.738-0.726-2.149-0.975-2.149-0.975l-0.016-1.667c0,0,0.651-0.5,0.854-2.069
		c0.407,0.119,0.834-0.607,0.857-0.989c0.021-0.367-0.058-1.389-0.553-1.287c0.101-0.769,0.174-1.459,0.14-1.826
		c-0.13-1.338-1.449-2.751-3.475-2.751c-2.027,0-3.346,1.413-3.474,2.751c-0.036,0.366,0.038,1.057,0.139,1.826
		c-0.497-0.103-0.575,0.919-0.552,1.287c0.023,0.382,0.45,1.108,0.858,0.989c0.201,1.569,0.853,2.069,0.853,2.069l-0.017,1.667
		c0,0-0.412,0.249-2.149,0.975c-1.738,0.724-3.492,1.229-4.016,2.045c-0.468,0.729-0.327,9.321-0.327,9.321h17.37
		C23.735,29.164,23.876,20.572,23.407,19.843z"/>
</g>
<path fill="none" stroke="#666666" stroke-width="0.5" stroke-linecap="round" stroke-miterlimit="10" d="M6.351,25.27
	c-2.521-2.321-4.101-5.651-4.101-9.35c0-7.018,5.69-12.708,12.708-12.708c7.018,0,12.708,5.69,12.708,12.708
	c0,3.608-1.504,6.866-3.919,9.18"/>
</svg>
