<?xml version="1.0" encoding="utf-8"?>
<!-- Generator: Adobe Illustrator 16.0.0, SVG Export Plug-In . SVG Version: 6.00 Build 0)  -->
<!DOCTYPE svg PUBLIC "-//W3C//DTD SVG 1.1//EN" "http://www.w3.org/Graphics/SVG/1.1/DTD/svg11.dtd">
<svg version="1.1" id="Layer_1" xmlns="http://www.w3.org/2000/svg" xmlns:xlink="http://www.w3.org/1999/xlink" x="0px" y="0px"
	 width="30px" height="30px" viewBox="0 0 30 30" enable-background="new 0 0 30 30" xml:space="preserve">
<path fill="#4D4D4D" d="M26.401,6H21V4.499C21,3.71,20.021,3,19.228,3h-8.603C9.833,3,9,3.711,9,4.499V6H3.452
	C1.875,6,1,7.224,1,8.8v14.346C1,24.721,1.875,26,3.452,26h22.95C27.977,26,29,24.722,29,23.146V8.8C29,7.224,27.979,6,26.401,6z
	 M14.928,22.649c-3.894,0-7.049-3.158-7.049-7.051c-0.001-3.893,3.155-7.05,7.049-7.05c3.89,0,7.047,3.158,7.047,7.05
	S18.818,22.649,14.928,22.649z M26,11h-2V9h2V11z"/>
</svg>
