<?xml version="1.0" encoding="utf-8"?>
<!-- Generator: Adobe Illustrator 16.0.0, SVG Export Plug-In . SVG Version: 6.00 Build 0)  -->
<!DOCTYPE svg PUBLIC "-//W3C//DTD SVG 1.1//EN" "http://www.w3.org/Graphics/SVG/1.1/DTD/svg11.dtd">
<svg version="1.1" id="Layer_1" xmlns="http://www.w3.org/2000/svg" xmlns:xlink="http://www.w3.org/1999/xlink" x="0px" y="0px"
	 width="30px" height="30px" viewBox="0 0 30 30" enable-background="new 0 0 30 30" xml:space="preserve">
<path fill="#4D4D4D" d="M15,0.634c-5.978,0-10.828,4.85-10.828,10.828c0,4.823,3.155,8.905,7.511,10.304L15,29.51l3.32-7.743
	c4.353-1.399,7.508-5.481,7.508-10.304C25.828,5.484,20.982,0.634,15,0.634z M19.728,16.877c-1.273,1.111-2.913,1.805-4.728,1.805
	c-1.815,0-3.454-0.693-4.723-1.805c-1.516-1.325-2.496-3.25-2.496-5.415c0-3.981,3.239-7.219,7.219-7.219
	c3.983,0,7.219,3.237,7.219,7.219C22.219,13.627,21.243,15.552,19.728,16.877z"/>
</svg>
