<?xml version="1.0" encoding="utf-8"?>
<!-- Generator: Adobe Illustrator 16.0.0, SVG Export Plug-In . SVG Version: 6.00 Build 0)  -->
<!DOCTYPE svg PUBLIC "-//W3C//DTD SVG 1.1//EN" "http://www.w3.org/Graphics/SVG/1.1/DTD/svg11.dtd">
<svg version="1.1" xmlns="http://www.w3.org/2000/svg" xmlns:xlink="http://www.w3.org/1999/xlink" x="0px" y="0px" width="30px"
	 height="30px" viewBox="0 0 30 30" enable-background="new 0 0 30 30" xml:space="preserve">

<g id="Circle_4_">
		<path fill="#FFFFFF" d="M14.803,5.438c4.819,0,8.74,3.92,8.74,8.74c0,4.819-3.921,8.74-8.74,8.74s-8.74-3.921-8.74-8.74
			C6.063,9.358,9.983,5.438,14.803,5.438 M14.803,0.438c-7.588,0-13.74,6.151-13.74,13.74s6.151,13.74,13.74,13.74
			c7.587,0,13.74-6.151,13.74-13.74S22.39,0.438,14.803,0.438L14.803,0.438z"/>
	</g>
	<polygon fill="#FFFFFF" points="25.438,29.358 25.438,29.358 20.25,26.312 24.375,23.562 	"/>
	
</svg>
